<?xml version="1.0" encoding="UTF-8"?>
<svg id="Calque_1" xmlns="http://www.w3.org/2000/svg" version="1.1" viewBox="0 0 593.69 120.45">
  
  <defs></defs>
  <rect fill="#E6332A" x="296.99" y="1.71" width="294.37" height="117.5" rx="9.78" ry="9.78"></rect>
  <path fill="#FFFFFF" d="M332.24,98.45h-11.78c-2.36,0-3.55-1.32-3.55-3.97v-54.9c0-4.07,1.61-6.81,4.82-8.23,9.93-4.07,21.52-6.1,34.76-6.1,9.08,0,14.94,2.13,17.59,6.38,5.39-4.26,14.52-6.38,27.38-6.38,6.15,0,10.73.73,13.76,2.2,3.03,1.47,5.11,3.71,6.24,6.74.85,2.46,1.28,7.09,1.28,13.9v46.39c0,2.65-1.13,3.97-3.4,3.97h-11.92c-2.36,0-3.55-1.32-3.55-3.97v-42.14c0-3.22-.24-5.53-.71-6.95-.85-2.74-3.83-4.11-8.94-4.11-3.59,0-7.24.61-10.92,1.84-1.13.38-2.18,1.04-3.12,1.99-.57.57-.85,1.47-.85,2.7,0,.28.02,1.02.07,2.2.05,1.18.07,1.92.07,2.2v42.28c0,2.65-1.18,3.97-3.55,3.97h-11.92c-2.36,0-3.55-1.32-3.55-3.97v-42.42c0-3.03-.24-5.25-.71-6.67-.57-1.51-1.49-2.58-2.77-3.19-1.28-.61-3.29-.92-6.03-.92-3.97,0-7.66.57-11.07,1.7-1.8.76-2.88,1.47-3.26,2.13-.47.57-.71,2.13-.71,4.68v44.69c0,2.65-1.23,3.97-3.69,3.97Z"></path>
  <path fill="#FFFFFF" d="M451.13,26.95h-11.78c-2.46,0-3.69,1.37-3.69,4.11v63.42c0,2.65,1.18,3.97,3.55,3.97h11.78c2.46,0,3.69-1.32,3.69-3.97V30.92c0-2.65-1.18-3.97-3.55-3.97Z"></path>
  <path fill="#FFFFFF" d="M482.77,98.45h-11.78c-2.36,0-3.55-1.32-3.55-3.97v-53.63c0-2.36.31-4.19.92-5.46.61-1.28,1.73-2.48,3.33-3.62,2.46-1.61,6.5-3.1,12.13-4.47,5.63-1.37,10.95-2.06,15.96-2.06,4.63,0,7.8.28,9.51.85,1.7.66,2.55,1.89,2.55,3.69,0,4.16-.28,7.38-.85,9.65-.38,1.61-1.56,2.41-3.55,2.41-.66,0-2.03-.05-4.11-.14-2.08-.09-3.5-.14-4.26-.14-4.26,0-7.61.61-10.07,1.84-1.04.57-1.7,1.18-1.99,1.84-.38.66-.57,1.89-.57,3.69v45.54c0,2.65-1.23,3.97-3.69,3.97Z"></path>
  <path fill="#FFFFFF" d="M569.74,92.92c-1.32,1.51-2.98,2.6-4.97,3.26-2.93,1.04-7.21,1.96-12.84,2.77-5.63.8-10.85,1.21-15.68,1.21-10.31,0-17.38-2.06-21.21-6.17-3.83-4.11-5.75-9.77-5.75-16.95,0-8.13,2.65-13.95,7.94-17.45,4.45-3.03,12.01-4.54,22.7-4.54,5.11,0,9.32.19,12.63.57v-3.55c0-3.03-.24-5.2-.71-6.53-1.14-2.74-5.15-4.11-12.06-4.11-4.45,0-9.17.43-14.19,1.28-3.69.57-5.72.85-6.1.85-1.61,0-2.65-.9-3.12-2.7-.95-3.78-1.42-6.53-1.42-8.23,0-2.18,1.04-3.59,3.12-4.26,6.9-2.18,15.04-3.26,24.4-3.26,11.92,0,19.86,1.94,23.83,5.82,3.4,3.31,5.11,9.6,5.11,18.87v36.32c0,3.12-.57,5.39-1.7,6.81ZM542.36,67.95c-6.24,0-10.31.71-12.2,2.13-1.8,1.13-2.7,3.31-2.7,6.53,0,3.03.8,5.32,2.41,6.88s4.49,2.34,8.65,2.34c5.11,0,8.94-.57,11.49-1.7,1.13-.47,1.84-1.23,2.13-2.27.28-.85.43-2.46.43-4.82v-8.51c-3.78-.38-7.19-.57-10.21-.57Z"></path>
  <path fill="#E6332A" d="M17.61,98.58H5.8c-2.37,0-3.56-1.33-3.56-3.98V6.08C2.25,2.86,3.62,1.25,6.37,1.25h10.95c2.65,0,3.98,1.66,3.98,4.98v23.94c2.18-1.42,5.64-2.61,10.38-3.56,4.74-.95,8.96-1.42,12.66-1.42,6.35,0,11.09.73,14.22,2.2,3.13,1.47,5.26,3.72,6.4,6.76.95,2.75,1.42,7.4,1.42,13.94v46.51c0,2.65-1.19,3.98-3.56,3.98h-11.95c-2.37,0-3.56-1.33-3.56-3.98v-42.24c0-3.13-.24-5.4-.71-6.83-.95-2.84-4.03-4.27-9.24-4.27-4.55,0-8.58.62-12.09,1.85-1.33.38-2.37,1.04-3.13,1.99-.57.66-.85,2.13-.85,4.41v45.09c0,2.65-1.23,3.98-3.7,3.98Z"></path>
  <path fill="#E6332A" d="M99.11,81.22c2.84,2.18,7.25,3.27,13.23,3.27s11.57-.52,15.93-1.56c2.09-.47,3.51-.71,4.27-.71,1.61,0,2.7.76,3.27,2.28,1.04,2.94,1.56,5.78,1.56,8.53,0,1.71-.76,2.89-2.28,3.56-5.78,2.47-14.13,3.7-25.03,3.7-12.71,0-21.69-2.94-26.95-8.82-5.26-5.88-7.89-15.36-7.89-28.45s2.8-23.04,8.39-29.01c5.59-5.97,14.22-8.96,25.89-8.96,5.4,0,9.96.64,13.65,1.92,3.7,1.28,6.57,2.87,8.6,4.76,2.04,1.9,3.6,4.62,4.69,8.18,1.09,3.56,1.78,6.95,2.06,10.17.28,3.22.43,7.49.43,12.8,0,2.47-.52,4.03-1.56,4.69-.76.57-1.85.85-3.27.85h-39.4c.09,6.35,1.56,10.62,4.41,12.8ZM120.87,54.91c.09-.47.14-1.37.14-2.7,0-4.46-.85-7.73-2.56-9.81-1.71-2.09-4.93-3.13-9.67-3.13s-8.32,1.28-10.45,3.84c-2.13,2.56-3.25,6.49-3.34,11.8h25.89Z"></path>
  <path fill="#E6332A" d="M167.66,80.37c1.04,2.09,3.75,3.51,8.11,4.27,2.09.28,3.13,1.52,3.13,3.7,0,3.13-.19,5.64-.57,7.54-.47,2.18-2.09,3.27-4.84,3.27-6.54,0-11.54-.69-15-2.06-3.46-1.37-6.14-3.53-8.04-6.47-2.09-3.32-3.13-8.82-3.13-16.5V5.52c0-2.65,1.23-3.98,3.7-3.98h11.95c1.33,0,2.23.31,2.7.92s.71,1.64.71,3.06v66.18c0,3.98.43,6.87,1.28,8.68Z"></path>
  <path fill="#E6332A" d="M203.5,80.37c1.04,2.09,3.75,3.51,8.11,4.27,2.09.28,3.13,1.52,3.13,3.7,0,3.13-.19,5.64-.57,7.54-.47,2.18-2.09,3.27-4.84,3.27-6.54,0-11.54-.69-15-2.06-3.46-1.37-6.14-3.53-8.04-6.47-2.09-3.32-3.13-8.82-3.13-16.5V5.52c0-2.65,1.23-3.98,3.7-3.98h11.95c1.33,0,2.23.31,2.7.92s.71,1.64.71,3.06v66.18c0,3.98.43,6.87,1.28,8.68Z"></path>
  <path fill="#E6332A" d="M275.19,92.18c-5.31,5.4-14.08,8.11-26.31,8.11s-20.39-2.65-25.6-7.96c-5.22-5.31-7.82-15.22-7.82-29.73,0-7.49.83-13.77,2.49-18.85,1.66-5.07,4.12-8.94,7.4-11.59,3.27-2.65,6.83-4.5,10.67-5.55,3.84-1.04,8.46-1.56,13.87-1.56,6.07,0,10.98.45,14.72,1.35,3.75.9,7.14,2.65,10.17,5.26,3.03,2.61,5.19,6.38,6.47,11.31,1.28,4.93,1.92,11.33,1.92,19.2,0,14.6-2.65,24.61-7.96,30.01ZM261.18,45.38c-1.94-2.84-5.81-4.27-11.59-4.27-5.31,0-9.1,1.47-11.38,4.41-2.28,2.94-3.41,8.58-3.41,16.93,0,8.91,1.02,14.82,3.06,17.71,2.04,2.89,5.81,4.34,11.31,4.34s9.48-1.4,11.66-4.2c2.18-2.8,3.27-8.6,3.27-17.42s-.97-14.65-2.92-17.49Z"></path>
</svg>