<?xml version="1.0" encoding="UTF-8"?>
<svg id="Calque_1" data-name="Calque 1" xmlns="http://www.w3.org/2000/svg" viewBox="0 0 354.78 120.45">
  <defs></defs>
  <rect fill="#E6332A" x="59.54" y="1.54" width="294.04" height="117.37" rx="9.77" ry="9.77"></rect>
  <path fill="#FFFFFF" d="M94.75,98.18h-11.76c-2.36,0-3.54-1.32-3.54-3.97v-54.84c0-4.06,1.61-6.8,4.82-8.22,9.92-4.06,21.49-6.09,34.72-6.09,9.07,0,14.93,2.13,17.57,6.38,5.39-4.25,14.5-6.38,27.35-6.38,6.14,0,10.72.73,13.75,2.2,3.02,1.46,5.1,3.71,6.24,6.73.85,2.46,1.28,7.09,1.28,13.89v46.34c0,2.65-1.13,3.97-3.4,3.97h-11.9c-2.36,0-3.54-1.32-3.54-3.97v-42.09c0-3.21-.24-5.53-.71-6.94-.85-2.74-3.83-4.11-8.93-4.11-3.59,0-7.23.61-10.91,1.84-1.13.38-2.17,1.04-3.12,1.98-.57.57-.85,1.46-.85,2.69,0,.28.02,1.02.07,2.2.05,1.18.07,1.91.07,2.2v42.23c0,2.65-1.18,3.97-3.54,3.97h-11.9c-2.36,0-3.54-1.32-3.54-3.97v-42.37c0-3.02-.24-5.24-.71-6.66-.57-1.51-1.49-2.57-2.76-3.19-1.28-.61-3.28-.92-6.02-.92-3.97,0-7.65.57-11.05,1.7-1.8.76-2.88,1.46-3.26,2.13-.47.57-.71,2.13-.71,4.68v44.64c0,2.65-1.23,3.97-3.68,3.97Z"></path>
  <path fill="#FFFFFF" d="M213.51,26.76h-11.76c-2.46,0-3.68,1.37-3.68,4.11v63.35c0,2.65,1.18,3.97,3.54,3.97h11.76c2.46,0,3.68-1.32,3.68-3.97V30.73c0-2.65-1.18-3.97-3.54-3.97Z"></path>
  <path fill="#FFFFFF" d="M245.11,98.18h-11.76c-2.36,0-3.54-1.32-3.54-3.97v-53.57c0-2.36.31-4.18.92-5.46.61-1.28,1.72-2.48,3.33-3.61,2.46-1.61,6.5-3.09,12.12-4.46,5.62-1.37,10.94-2.06,15.94-2.06,4.63,0,7.79.28,9.49.85,1.7.66,2.55,1.89,2.55,3.68,0,4.16-.28,7.37-.85,9.64-.38,1.61-1.56,2.41-3.54,2.41-.66,0-2.03-.05-4.11-.14-2.08-.09-3.5-.14-4.25-.14-4.25,0-7.61.61-10.06,1.84-1.04.57-1.7,1.18-1.98,1.84-.38.66-.57,1.89-.57,3.68v45.49c0,2.65-1.23,3.97-3.68,3.97Z"></path>
  <path fill="#FFFFFF" d="M331.98,92.66c-1.32,1.51-2.98,2.6-4.96,3.26-2.93,1.04-7.2,1.96-12.83,2.76-5.62.8-10.84,1.2-15.66,1.2-10.3,0-17.36-2.05-21.19-6.16-3.83-4.11-5.74-9.75-5.74-16.93,0-8.13,2.65-13.94,7.94-17.43,4.44-3.02,12-4.53,22.67-4.53,5.1,0,9.31.19,12.61.57v-3.54c0-3.02-.24-5.2-.71-6.52-1.13-2.74-5.15-4.11-12.05-4.11-4.44,0-9.16.43-14.17,1.28-3.68.57-5.72.85-6.09.85-1.61,0-2.65-.9-3.12-2.69-.94-3.78-1.42-6.52-1.42-8.22,0-2.17,1.04-3.59,3.12-4.25,6.9-2.17,15.02-3.26,24.37-3.26,11.9,0,19.84,1.94,23.81,5.81,3.4,3.31,5.1,9.59,5.1,18.85v36.28c0,3.12-.57,5.39-1.7,6.8ZM304.63,67.72c-6.24,0-10.3.71-12.19,2.13-1.8,1.13-2.69,3.31-2.69,6.52,0,3.02.8,5.31,2.41,6.87,1.61,1.56,4.49,2.34,8.64,2.34,5.1,0,8.93-.57,11.48-1.7,1.13-.47,1.84-1.23,2.13-2.27.28-.85.43-2.46.43-4.82v-8.5c-3.78-.38-7.18-.57-10.2-.57Z"></path>
  <g>
    <path fill="#E6332A" d="M45.45,112.49v4.93c0,.99-.55,1.49-1.66,1.49H3.7c-1.35,0-2.02-.57-2.02-1.72v-4.58c0-1.11.69-1.66,2.08-1.66h13.1c-.59-.91-1.09-2.36-1.49-4.34-.4-1.98-.59-3.74-.59-5.29,0-2.65.31-4.64.92-5.94.61-1.31,1.56-2.2,2.82-2.67,1.15-.4,3.09-.59,5.82-.59h19.43c1.11,0,1.66.5,1.66,1.49v4.99c0,.99-.55,1.49-1.66,1.49h-17.65c-1.31,0-2.26.1-2.85.3-1.19.4-1.78,1.68-1.78,3.86,0,1.9.26,3.59.77,5.05.16.55.44.99.83,1.31.28.24.89.36,1.84.36h18.84c1.11,0,1.66.52,1.66,1.55Z"></path>
    <path fill="#E6332A" d="M38.2,78.44c.91-1.19,1.37-3.03,1.37-5.53s-.22-4.83-.65-6.66c-.2-.87-.3-1.47-.3-1.78,0-.67.32-1.13.95-1.37,1.23-.44,2.42-.65,3.57-.65.71,0,1.21.32,1.49.95,1.03,2.42,1.55,5.9,1.55,10.46,0,5.31-1.23,9.06-3.68,11.26-2.46,2.2-6.42,3.3-11.89,3.3s-9.63-1.17-12.12-3.51c-2.5-2.34-3.74-5.94-3.74-10.82,0-2.26.27-4.16.8-5.71.53-1.55,1.2-2.74,1.99-3.6s1.93-1.51,3.42-1.96c1.49-.46,2.9-.74,4.25-.86,1.35-.12,3.13-.18,5.35-.18,1.03,0,1.68.22,1.96.65.24.32.36.77.36,1.37v16.46c2.65-.04,4.44-.65,5.35-1.84ZM27.2,69.35c-.2-.04-.57-.06-1.13-.06-1.86,0-3.23.36-4.1,1.07-.87.71-1.31,2.06-1.31,4.04s.53,3.48,1.6,4.37c1.07.89,2.71,1.36,4.93,1.4v-10.82Z"></path>
    <path fill="#E6332A" d="M37.84,49.8c.87-.44,1.47-1.57,1.78-3.39.12-.87.63-1.31,1.55-1.31,1.31,0,2.36.08,3.15.24.91.2,1.37.87,1.37,2.02,0,2.73-.29,4.82-.86,6.27-.57,1.45-1.48,2.57-2.7,3.36-1.39.87-3.68,1.31-6.89,1.31H3.47c-1.11,0-1.66-.52-1.66-1.55v-4.99c0-.55.13-.93.39-1.13s.68-.3,1.28-.3h30.75c1.66,0,2.87-.18,3.63-.53Z"></path>
    <path fill="#E6332A" d="M37.84,34.82c.87-.44,1.47-1.57,1.78-3.39.12-.87.63-1.31,1.55-1.31,1.31,0,2.36.08,3.15.24.91.2,1.37.87,1.37,2.02,0,2.73-.29,4.82-.86,6.27-.57,1.45-1.48,2.57-2.7,3.36-1.39.87-3.68,1.31-6.89,1.31H3.47c-1.11,0-1.66-.52-1.66-1.55v-4.99c0-.55.13-.93.39-1.13s.68-.3,1.28-.3h30.75c1.66,0,2.87-.18,3.63-.53Z"></path>
    <path fill="#E6332A" d="M42.77,4.87c2.26,2.22,3.39,5.88,3.39,10.99s-1.11,8.52-3.33,10.7c-2.22,2.18-6.36,3.27-12.42,3.27-3.13,0-5.75-.35-7.87-1.04-2.12-.69-3.73-1.72-4.84-3.09s-1.88-2.85-2.32-4.46c-.44-1.6-.65-3.54-.65-5.79,0-2.54.19-4.59.56-6.15.38-1.57,1.11-2.98,2.2-4.25,1.09-1.27,2.66-2.17,4.72-2.7s4.73-.8,8.02-.8c6.1,0,10.28,1.11,12.54,3.33ZM23.22,10.72c-1.19.81-1.78,2.43-1.78,4.84,0,2.22.61,3.8,1.84,4.75,1.23.95,3.59,1.43,7.07,1.43,3.72,0,6.19-.43,7.4-1.28s1.81-2.43,1.81-4.72-.58-3.96-1.75-4.87c-1.17-.91-3.6-1.37-7.28-1.37s-6.12.41-7.31,1.22Z"></path>
  </g>
</svg>